#!OML:ASF G:\ViconDB\ViconDB\414\test\team2\shane.ASF
:FULLY-SPECIFIED
:DEGREES
296
root 13.242 16.8149 6.71257 -181.467 40.0462 -167.799
lowerback 10.8883 -1.97578 1.0718
upperback 4.55192 -2.12601 2.26978
thorax -1.31221 -0.924904 1.99523
lowerneck -17.7283 -3.96162 -9.09548
upperneck 24.3489 -4.18484 6.39083
head 11.1676 -1.79395 3.27962
rclavicle -4.71617e-014 4.77083e-015
rhumerus -39.2281 -8.94362 -77.4744
rradius 23.572
rwrist 46.9108
rhand -18.5623 158.47
rfingers 7.12502
rthumb 7.72761 -171.692
lclavicle -4.71617e-014 4.77083e-015
lhumerus -19.1204 -10.7408 91.6716
lradius 28.7116
lwrist -21.5578
lhand -40.3189 4.92735
lfingers 7.12502
lthumb -13.2751 34.4846
rfemur -8.36358 -10.2696 15.0253
rtibia 46.6519
rfoot -14.0439 -3.77654
rtoes -9.73803
lfemur 14.7217 7.22999 -12.5563
ltibia 13.7106
lfoot -20.3883 -33.5997
ltoes -3.02711
297
root 13.3561 16.8318 6.62113 -181.491 39.1935 -167.771
lowerback 10.8761 -2.08761 1.21546
upperback 4.55702 -2.25577 2.27915
thorax -1.30223 -0.986295 1.93896
lowerneck -17.6679 -3.97294 -8.89093
upperneck 24.116 -4.22404 6.22143
head 11.0627 -1.81713 3.17061
rclavicle -7.06183e-014 -3.97569e-015
rhumerus -39.9853 -9.42714 -76.7975
rradius 23.3192
rwrist 47.6804
rhand -18.5135 158.484
rfingers 7.12502
rthumb 7.77471 -171.679
lclavicle -7.06183e-014 -3.97569e-015
lhumerus -18.4934 -11.4113 91.8031
lradius 29.4824
lwrist -21.5481
lhand -40.5428 5.05816
lfingers 7.12502
lthumb -13.491 34.6012
rfemur -8.88188 -9.65483 15.5339
rtibia 44.1146
rfoot -14.3273 -3.55885
rtoes -9.53887
lfemur 15.5962 5.56961 -12.4983
ltibia 12.4169
lfoot -17.5757 -33.8935
ltoes -1.22048
298
root 13.476 16.8282 6.5356 -181.514 38.3446 -167.789
lowerback 10.9086 -2.1929 1.03961
upperback 4.49189 -2.40304 2.47194
thorax -1.36764 -1.06178 2.25766
lowerneck -17.5202 -3.99582 -8.91594
upperneck 23.9379 -4.18116 5.92836
head 10.9586 -1.83958 3.0696
rclavicle -7.29043e-014 3.18055e-014
rhumerus -40.7748 -9.3432 -76.0465
rradius 23.1008
rwrist 48.4284
rhand -18.5093 158.307
rfingers 7.12502
rthumb 7.77874 -171.856
lclavicle -7.29043e-014 3.18055e-014
lhumerus -17.9998 -12.0744 92.1983
lradius 30.21
lwrist -21.3762
lhand -40.8701 5.24692
lfingers 7.12502
lthumb -13.8064 34.7688
rfemur -9.50304 -9.33366 16.0292
rtibia 41.6273
rfoot -14.6295 -3.23703
rtoes -9.50424
lfemur 16.67 5.30628 -12.1692
ltibia 10.9021
lfoot -16.8875 -34.6031
ltoes -1.06894
299
root 13.5929 16.8192 6.44626 -181.829 37.6177 -168.259
lowerback 10.9741 -2.22451 0.699306
upperback 4.3971 -2.48571 2.41659
thorax -1.48664 -1.10907 2.4058
lowerneck -17.562 -3.96766 -9.07948
upperneck 24.0882 -4.15537 6.19808
head 11.0305 -1.8055 3.20458
rclavicle 1.68967e-015 -1.59028e-014
rhumerus -41.6184 -10.1101 -75.0577
rradius 22.934
rwrist 49.8592
rhand -18.3956 158.19
rfingers 7.12502
rthumb 7.88856 -171.977
lclavicle 1.68967e-015 -1.59028e-014
lhumerus -17.3528 -12.2661 92.3203
lradius 30.3954
lwrist -21.8435
lhand -40.9142 4.79764
lfingers 7.12502
lthumb -13.8489 34.3166
rfemur -10.0213 -8.78481 16.0744
rtibia 39.0226
rfoot -14.8918 -2.81672
rtoes -10.1855
lfemur 17.864 4.7259 -12.4642
ltibia 9.33495
lfoot -16.832 -34.6185
ltoes -1.5547
300
root 13.7084 16.7825 6.35501 -181.868 36.8811 -168.257
lowerback 11.0984 -2.36062 0.734671
upperback 4.30303 -2.65585 2.48758
thorax -1.64401 -1.19321 2.4876
lowerneck -17.3389 -3.92457 -8.88641
upperneck 23.8153 -4.09572 5.92178
head 10.8694 -1.799 3.07411
rclavicle 9.79014e-015 -1.31198e-014
rhumerus -42.2771 -8.92791 -75.2181
rradius 23.0316
rwrist 48.5009
rhand -28.6481 -11.6438
rfingers 7.12502
rthumb -2.01186 -41.614
lclavicle 9.79014e-015 -1.31198e-014
lhumerus -17.1604 -12.9438 92.489
lradius 31.3308
lwrist -21.6837
lhand -41.1395 5.21061
lfingers 7.12502
lthumb -14.0661 34.7146
rfemur -10.6202 -9.06375 16.4986
rtibia 36.6073
rfoot -15.1541 -1.99898
rtoes -11.7424
lfemur 19.0849 4.14279 -12.4578
ltibia 7.85455
lfoot -18.1053 -33.9807
ltoes -3.36068
301
root 13.8273 16.7855 6.25552 -182.074 36.1878 -168.502
lowerback 11.0189 -2.39702 0.549798
upperback 4.30858 -2.72384 2.51665
thorax -1.58185 -1.229 2.62617
lowerneck -17.3412 -3.93847 -9.07503
upperneck 23.7863 -4.10914 6.11277
head 10.8693 -1.79853 3.1737
rclavicle 1.10624e-013 -4.53229e-014
rhumerus -42.8522 -8.6697 -74.901
rradius 23.0547
rwrist 48.0427
rhand -28.61 -11.7691
rfingers 7.12502
rthumb -1.97504 -41.7397
lclavicle 1.10624e-013 -4.53229e-014
lhumerus -16.5229 -12.5985 92.6778
lradius 31.6029
lwrist -22.1261
lhand -41.1718 4.72207
lfingers 7.12502
lthumb -14.0972 34.2239
rfemur -11.0799 -8.87276 16.6864
rtibia 34.263
rfoot -15.846 -1.16985
rtoes -11.4556
lfemur 20.5272 3.53117 -12.4185
ltibia 5.70087
lfoot -15.667 -34.6673
ltoes -2.14562
302
root 13.9303 16.7505 6.20232 -182.52 34.9138 -168.267
lowerback 12.3402 -2.67576 0.634581
upperback 4.21495 -3.01688 2.65012
thorax -2.38226 -1.3569 2.8204
lowerneck -17.2717 -3.91823 -9.16281
upperneck 23.698 -4.09343 6.24318
head 10.8265 -1.78398 3.23748
rclavicle -4.37326e-015 -7.15625e-015
rhumerus -43.4755 -8.59322 -74.4707
rradius 22.9448
rwrist 48.5508
rhand -28.612 -11.6375
rfingers 7.12502
rthumb -1.97698 -41.608
lclavicle -4.37326e-015 -7.15625e-015
lhumerus -16.365 -13.8573 92.81
lradius 32.3472
lwrist -21.7791
lhand -41.2544 5.31261
lfingers 7.12502
lthumb -14.1768 34.8089
rfemur -11.2417 -9.80815 17.105
rtibia 32.2835
rfoot -16.5551 0.00756371
rtoes -11.182
lfemur 23.1528 2.3325 -12.2247
ltibia 1.66658
lfoot -13.6437 -34.7996
ltoes -2.58778
303
root 14.0612 16.7473 6.05524 -182.346 35.0237 -168.747
lowerback 11.0168 -2.47601 0.568131
upperback 4.26777 -2.82408 2.53014
thorax -1.61924 -1.27791 2.64282
lowerneck -17.0351 -3.91322 -9.02958
upperneck 23.3272 -4.11077 6.10629
head 10.6392 -1.80245 3.15517
rclavicle 8.80119e-014 -4.05521e-014
rhumerus -43.9134 -8.61878 -74.0597
rradius 22.8939
rwrist 48.4462
rhand -28.5636 -11.6091
rfingers 7.12502
rthumb -1.93024 -41.5801
lclavicle 8.80119e-014 -4.05521e-014
lhumerus -15.9817 -14.1717 92.9403
lradius 32.7827
lwrist -22.0042
lhand -41.3591 5.3141
lfingers 7.12502
lthumb -14.2777 34.8033
rfemur -12.2592 -10.0684 17.2805
rtibia 30.5038
rfoot -17.6459 1.78296
rtoes -11.6147
lfemur 24.2202 2.56108 -12.3118
ltibia 9.22361e-014
lfoot -12.3184 -35.241
ltoes -2.05771
304
root 14.1823 16.7069 5.95521 -182.48 34.4098 -168.819
lowerback 11.0052 -2.54695 0.571927
upperback 4.25989 -2.91402 2.57132
thorax -1.61528 -1.32183 2.69391
lowerneck -16.9596 -3.86802 -9.01695
upperneck 23.1912 -4.04941 6.08013
head 10.5685 -1.77792 3.15004
rclavicle 1.14053e-013 -2.78299e-014
rhumerus -44.3959 -8.1223 -73.9528
rradius 22.9937
rwrist 48.4358
rhand -28.5112 -11.8254
rfingers 7.12502
rthumb -1.87962 -41.7969
lclavicle 1.14053e-013 -2.78299e-014
lhumerus -15.7373 -13.9869 93.0378
lradius 33.2545
lwrist -22.224
lhand -41.3191 4.84156
lfingers 7.12502
lthumb -14.2391 34.3334
rfemur -13.027 -12.3747 17.7354
rtibia 29.2273
rfoot -18.7247 4.28416
rtoes -12.8408
lfemur 24.8481 2.10724 -12.3982
ltibia -6.36111e-015
lfoot -13.9631 -34.8856
ltoes -3.08039
